<?xml version="1.0" encoding="UTF-8"?>
<!DOCTYPE svg PUBLIC "-//W3C//DTD SVG 1.1//EN" "http://www.w3.org/Graphics/SVG/1.1/DTD/svg11.dtd">
<!-- Creator: CorelDRAW -->
<svg xmlns="http://www.w3.org/2000/svg" xml:space="preserve" width="15.748in" height="8.85827in" version="1.1" style="shape-rendering:geometricPrecision; text-rendering:geometricPrecision; image-rendering:optimizeQuality; fill-rule:evenodd; clip-rule:evenodd"
viewBox="1314.49 3055.98 1049.24 1160.52"
 xmlns:xlink="http://www.w3.org/1999/xlink"
 xmlns:xodm="http://www.corel.com/coreldraw/odm/2003">
 <defs>
  <style type="text/css">
   <![CDATA[
    .fil0 {fill:#FF6C6C;fill-rule:nonzero}
   ]]>
  </style>
 </defs>
 <g id="Layer_x0020_1">
  <metadata id="CorelCorpID_0Corel-Layer"/>
  <g id="_1729450336000">
   <path class="fil0" d="M1645.09 3797.49c0,-10.41 8.47,-18.88 18.88,-18.88l350.27 0c10.41,0 18.89,8.46 18.89,18.88l0 31.79c0,9.54 -7.13,17.6 -16.54,18.73 -0.87,0.12 -1.66,0.17 -2.35,0.17l-350.27 0c-0.69,0 -1.47,-0.05 -2.34,-0.17 -9.43,-1.15 -16.54,-9.19 -16.54,-18.73l0 -31.79zm54.25 -381.58l93.18 0 0 -93.2 93.19 0 0 93.2 93.18 0 0 93.18 -93.18 0 0 93.18 -93.19 0 0 -93.18 -93.18 0 0 -93.18zm-253.59 738.42l234.28 0 0 -264.43 139.6 0 0 264.43 41.73 0 0 -264.43 136.83 0 0 264.43 234.28 0 0 -908.49 -786.72 0 0 908.49z"/>
   <path class="fil0" d="M2273.08 3118.15l-867.94 0c-15.74,0 -28.48,12.74 -28.48,28.47l0 22.77c0,15.75 12.75,28.49 28.48,28.49l867.94 0c15.73,0 28.48,-12.74 28.48,-28.49l0 -22.77c0,-15.73 -12.75,-28.47 -28.48,-28.47z"/>
  </g>
 </g>
</svg>
