<?xml version="1.0" encoding="UTF-8"?>
<!DOCTYPE svg PUBLIC "-//W3C//DTD SVG 1.1//EN" "http://www.w3.org/Graphics/SVG/1.1/DTD/svg11.dtd">
<!-- Creator: CorelDRAW -->
<svg xmlns="http://www.w3.org/2000/svg" xml:space="preserve" width="15.748in" height="8.85827in" version="1.1" style="shape-rendering:geometricPrecision; text-rendering:geometricPrecision; image-rendering:optimizeQuality; fill-rule:evenodd; clip-rule:evenodd"
viewBox="8329.14 3155.40 1325.02 961.75"
 xmlns:xlink="http://www.w3.org/1999/xlink"
 xmlns:xodm="http://www.corel.com/coreldraw/odm/2003">
 <defs>
  <style type="text/css">
   <![CDATA[
    .fil0 {fill:#3EC5BE;fill-rule:nonzero}
   ]]>
  </style>
 </defs>
 <g id="Layer_x0020_1">
  <metadata id="CorelCorpID_0Corel-Layer"/>
  <g id="_1730060981392">
   <polygon class="fil0" points="8955.66,3501.11 9027.65,3501.11 9027.65,3429.12 9099.64,3429.12 9099.64,3357.14 9027.65,3357.14 9027.65,3285.15 8955.66,3285.15 8955.66,3357.14 8883.7,3357.14 8883.7,3429.12 8955.66,3429.12 "/>
   <path class="fil0" d="M8898.09 3711.75c0,-7.33 5.94,-13.27 13.27,-13.27l160.62 0c7.33,0 13.24,5.94 13.24,13.27l0 248.12 -187.13 0 0 -248.12zm93.57 -465.9c80.9,0 146.46,65.59 146.46,146.46 0,80.89 -65.57,146.46 -146.46,146.46 -80.89,0 -146.46,-65.57 -146.46,-146.46 0,-80.87 65.57,-146.46 146.46,-146.46zm-476.47 474.09l60.22 0 0 60.22 -60.22 0 0 -60.22zm0 -98.71l60.22 0 0 60.22 -60.22 0 0 -60.22zm0 -98.71l60.22 0 0 60.19 -60.22 0 0 -60.19zm98.74 197.43l60.19 0 0 60.22 -60.19 0 0 -60.22zm0 -98.71l60.19 0 0 60.22 -60.19 0 0 -60.22zm0 -98.71l60.19 0 0 60.19 -60.19 0 0 -60.19zm695.27 197.43l60.19 0 0 60.22 -60.19 0 0 -60.22zm0 -98.71l60.19 0 0 60.22 -60.19 0 0 -60.22zm0 -98.71l60.19 0 0 60.19 -60.19 0 0 -60.19zm98.71 197.43l60.22 0 0 60.22 -60.22 0 0 -60.22zm0 -98.71l60.22 0 0 60.22 -60.22 0 0 -60.22zm0 -98.71l60.22 0 0 60.19 -60.22 0 0 -60.19zm126.94 437.36l0 -512.21c0,-17.98 -14.58,-32.56 -32.56,-32.56l-252.59 0 0 544.76 -28.59 0 0 -700.99c0,-17.98 -14.58,-32.53 -32.56,-32.53l-393.81 0c-17.98,0 -32.53,14.55 -32.53,32.53l0 700.99 -28.6 0 0 -544.76 -252.59 0c-17.98,0 -32.56,14.58 -32.56,32.56l0 512.21 -48.34 0 0 86.25 1183.05 0 0 -86.25 -48.34 0z"/>
  </g>
 </g>
</svg>
