<?xml version="1.0" encoding="UTF-8"?>
<!DOCTYPE svg PUBLIC "-//W3C//DTD SVG 1.1//EN" "http://www.w3.org/Graphics/SVG/1.1/DTD/svg11.dtd">
<!-- Creator: CorelDRAW -->
<svg xmlns="http://www.w3.org/2000/svg" xml:space="preserve" width="15.748in" height="8.85827in" version="1.1" style="shape-rendering:geometricPrecision; text-rendering:geometricPrecision; image-rendering:optimizeQuality; fill-rule:evenodd; clip-rule:evenodd"
viewBox="1226.85 6063.11 1224.53 1201.59"
 xmlns:xlink="http://www.w3.org/1999/xlink"
 xmlns:xodm="http://www.corel.com/coreldraw/odm/2003">
 <defs>
  <style type="text/css">
   <![CDATA[
    .fil0 {fill:#FF6C6C;fill-rule:nonzero}
   ]]>
  </style>
 </defs>
 <g id="Layer_x0020_1">
  <metadata id="CorelCorpID_0Corel-Layer"/>
  <g id="_1729439238128">
   <g>
    <path class="fil0" d="M1304.97 6802.76c2.03,-5.8 4.07,-1.09 8.59,3.58 9.54,9.89 16.75,23.2 23.94,34.83 -2.85,-4.77 8.76,12.22 8.09,11.34 5.13,6.83 10.54,13.44 16.06,19.96 12.8,15.11 26.49,29.35 41,42.84 29.07,27.04 60.93,51.07 94.88,71.63 69.24,41.93 147.27,68.99 227.81,77.69 148.59,16.06 300.18,-30.2 416.48,-122.81l-42.43 -49.43 286.39 -60.55 -99.04 278.81 -50.74 -59.11c-99.11,87.03 -227.44,138.37 -359.58,142.95 -133.04,4.61 -265.22,-41.28 -369.65,-123.28 -65.93,-51.78 -116.83,-117.1 -161.12,-187.74 -9.96,-15.88 -19.26,-32.56 -27.63,-49.33 -1.31,-2.65 -14.87,-26.21 -13.05,-31.4z"/>
    <path class="fil0" d="M2373.27 6525.06c-2.03,5.8 -4.08,1.09 -8.6,-3.59 -9.54,-9.89 -16.75,-23.19 -23.94,-34.83 2.85,4.76 -8.75,-12.23 -8.09,-11.35 -5.13,-6.82 -10.53,-13.44 -16.05,-19.95 -12.81,-15.12 -26.5,-29.35 -41,-42.85 -29.06,-27.04 -60.93,-51.06 -94.89,-71.63 -69.23,-41.93 -147.27,-68.98 -227.81,-77.68 -148.59,-16.06 -300.18,30.2 -416.48,122.81l42.43 49.43 -286.39 60.55 99.05 -278.82 50.73 59.11c99.11,-87.02 227.44,-138.37 359.59,-142.94 133.04,-4.61 265.22,41.28 369.65,123.27 65.93,51.78 116.83,117.1 161.12,187.74 9.96,15.88 19.26,32.56 27.63,49.33 1.31,2.65 14.88,26.21 13.06,31.4z"/>
   </g>
   <polygon class="fil0" points="1771.62,6866.33 1906.61,6866.33 1906.61,6731.39 2041.55,6731.39 2041.55,6596.44 1906.61,6596.44 1906.61,6461.5 1771.62,6461.5 1771.62,6596.44 1636.68,6596.44 1636.68,6731.39 1771.62,6731.39 "/>
  </g>
 </g>
</svg>
