<?xml version="1.0" encoding="UTF-8"?>
<!DOCTYPE svg PUBLIC "-//W3C//DTD SVG 1.1//EN" "http://www.w3.org/Graphics/SVG/1.1/DTD/svg11.dtd">
<!-- Creator: CorelDRAW -->
<svg xmlns="http://www.w3.org/2000/svg" xml:space="preserve" width="15.748in" height="8.85827in" version="1.1" style="shape-rendering:geometricPrecision; text-rendering:geometricPrecision; image-rendering:optimizeQuality; fill-rule:evenodd; clip-rule:evenodd"
viewBox="8388.02 6078.92 1207.30 1148.21"
 xmlns:xlink="http://www.w3.org/1999/xlink"
 xmlns:xodm="http://www.corel.com/coreldraw/odm/2003">
 <defs>
  <style type="text/css">
   <![CDATA[
    .fil0 {fill:#3EC5BE;fill-rule:nonzero}
   ]]>
  </style>
 </defs>
 <g id="Layer_x0020_1">
  <metadata id="CorelCorpID_0Corel-Layer"/>
  <path class="fil0" d="M9202.39 6193.94c110.24,-11.75 218.37,-37.64 328.26,-50.34 -27.06,103.56 -47.15,210.04 -65.87,315.43 -34.98,-29.87 -68.31,-61.46 -100,-94.78 -101.95,87.98 -196.53,187.15 -302.8,269.67 -32.46,-29.72 -67.92,-55.24 -102.35,-82.54 -42.05,-33.35 -85.19,-73.09 -132.48,-98.32 -115.66,90.82 -214.8,203.31 -332.95,291.68 -11.96,-18.06 -27.37,-34.37 -41.5,-50.79 40.91,-42.44 88.92,-79.03 132.87,-118.35 82.74,-74.06 164.96,-149.76 250.65,-220.42 69.37,67.17 149.58,123.83 219.41,191.22 82.15,-80.44 169.51,-158.7 257.74,-232.46 -36.61,-40.28 -74.83,-79.33 -110.96,-119.99zm14.91 417.62c66.64,2.3 133.31,3.33 200,3.08 -1.64,124.72 -0.56,249.58 -0.33,374.31 0.1,56.41 4.9,116.08 -0.39,172.08 -65.76,0.59 -132.17,1.43 -197.86,-1.57 5.48,-182.37 -0.77,-365.47 -1.41,-547.9zm-472.33 53.21c62,0.46 124.01,0.33 186.02,-0.37l-0.65 496.13 -182.4 0.26 -2.96 -496.02zm239.35 131.65c57.43,1.16 115.06,0.13 172.51,0.12l0.75 362.47 -169.92 0.23c-0.35,-120.94 -1.48,-241.89 -3.34,-362.82zm-473.22 46.4c57.24,1.99 114.83,0.7 172.12,0.66 1.76,65.91 2.55,131.81 2.37,197.76 0.13,39.56 2.3,80.25 -1.17,119.62 -58.03,-0.75 -116.15,-0.09 -174.21,-0.03 3.06,-105.82 1.01,-212.14 0.89,-318.01z"/>
 </g>
</svg>
