<?xml version="1.0" encoding="UTF-8"?>
<!DOCTYPE svg PUBLIC "-//W3C//DTD SVG 1.1//EN" "http://www.w3.org/Graphics/SVG/1.1/DTD/svg11.dtd">
<!-- Creator: CorelDRAW -->
<svg xmlns="http://www.w3.org/2000/svg" xml:space="preserve" width="15.748in" height="8.85827in" version="1.1" style="shape-rendering:geometricPrecision; text-rendering:geometricPrecision; image-rendering:optimizeQuality; fill-rule:evenodd; clip-rule:evenodd"
viewBox="8387.24 2969.80 1208.89 1232.84"
 xmlns:xlink="http://www.w3.org/1999/xlink"
 xmlns:xodm="http://www.corel.com/coreldraw/odm/2003">
 <defs>
  <style type="text/css">
   <![CDATA[
    .fil0 {fill:#3EC5BE}
   ]]>
  </style>
 </defs>
 <g id="Layer_x0020_1">
  <metadata id="CorelCorpID_0Corel-Layer"/>
  <path class="fil0" d="M8520.7 3282l144.37 0 0 51.57 -154.18 0 0 545.19 961.57 0 0 -545.19 -154.18 0 0 -51.57 144.37 0c37.09,0 67.43,30.34 67.43,67.43l0 592.24c0,37.09 -30.34,67.43 -67.43,67.43l-352.73 0 0 65.74 145.54 0 0 61.76 -145.54 0 -236.48 0 -145.54 0 0 -61.76 145.54 0 0 -65.74 -352.73 0c-37.09,0 -67.43,-30.34 -67.43,-67.43l0 -592.24c0,-37.09 30.34,-67.43 67.43,-67.43zm217.5 -246.15l506.96 0c11.96,0 22.83,4.89 30.7,12.76 7.87,7.87 12.76,18.74 12.76,30.7l0 313.58c0,11.96 -4.89,22.83 -12.76,30.7 -7.87,7.87 -18.74,12.76 -30.7,12.76l-506.96 0c-11.96,0 -22.83,-4.89 -30.7,-12.76 -7.87,-7.87 -12.76,-18.74 -12.76,-30.7l0 -313.58c0,-11.96 4.89,-22.83 12.76,-30.7 7.87,-7.87 18.74,-12.76 30.7,-12.76zm194.89 173.85l35.01 0c12.09,0 21.98,9.89 21.98,21.98l0 0c0,12.09 -9.89,21.98 -21.98,21.98l-35.01 0 0 154.89 312.07 0c4.3,0 8.22,-1.77 11.06,-4.61 2.84,-2.84 4.61,-6.76 4.61,-11.06l0 -313.58c0,-4.3 -1.77,-8.22 -4.61,-11.06 -2.84,-2.84 -6.76,-4.61 -11.06,-4.61l-312.07 0 0 146.07zm144.7 -28.55c22.52,0 41.88,13.56 50.36,32.95l13.34 0c12.09,0 21.98,9.89 21.98,21.98l0 0c0,12.09 -9.89,21.98 -21.98,21.98l-13.34 0c-8.48,19.4 -27.83,32.95 -50.35,32.95 -30.34,0 -54.94,-24.59 -54.94,-54.94 0,-30.34 24.59,-54.94 54.94,-54.94zm-251.9 116.11c14.37,4.72 24.74,18.25 24.74,34.2 0,19.88 -16.11,35.99 -35.99,35.99 -19.88,0 -35.99,-16.11 -35.99,-35.99 0,-15.95 10.37,-29.47 24.74,-34.2l0 -122.34c-14.37,-4.72 -24.74,-18.25 -24.74,-34.2 0,-19.88 16.11,-35.99 35.99,-35.99 19.88,0 35.99,16.11 35.99,35.99 0,15.95 -10.37,29.47 -24.74,34.2l0 122.34zm80.88 111.3l0 -344.93 -168.57 0c-4.3,0 -8.22,1.77 -11.06,4.61 -2.84,2.84 -4.61,6.77 -4.61,11.06l0 313.58c0,4.3 1.77,8.22 4.61,11.06 2.84,2.84 6.77,4.61 11.06,4.61l168.57 0zm-227.99 292.17l633.64 0c9.37,0 17.02,7.66 17.02,17.02l0 0c0,9.37 -7.66,17.02 -17.02,17.02l-633.64 0c-9.37,0 -17.02,-7.66 -17.02,-17.02l0 -0c0,-9.37 7.66,-17.02 17.02,-17.02zm0 -73.19l633.64 0c9.37,0 17.02,7.66 17.02,17.02l0 0c0,9.37 -7.66,17.02 -17.02,17.02l-633.64 0c-9.37,0 -17.02,-7.66 -17.02,-17.02l0 -0c0,-9.37 7.66,-17.02 17.02,-17.02zm0 -73.19l633.64 0c9.37,0 17.02,7.66 17.02,17.02l0 0c0,9.37 -7.66,17.02 -17.02,17.02l-633.64 0c-9.37,0 -17.02,-7.66 -17.02,-17.02l0 -0c0,-9.37 7.66,-17.02 17.02,-17.02zm0 -73.19l633.64 0c9.37,0 17.02,7.66 17.02,17.02l0 0c0,9.37 -7.66,17.02 -17.02,17.02l-633.64 0c-9.37,0 -17.02,-7.66 -17.02,-17.02l0 -0c0,-9.37 7.66,-17.02 17.02,-17.02z"/>
 </g>
</svg>
