<?xml version="1.0" encoding="UTF-8"?>
<!DOCTYPE svg PUBLIC "-//W3C//DTD SVG 1.1//EN" "http://www.w3.org/Graphics/SVG/1.1/DTD/svg11.dtd">
<!-- Creator: CorelDRAW -->
<svg xmlns="http://www.w3.org/2000/svg" xml:space="preserve" width="15.748in" height="8.85827in" version="1.1" style="shape-rendering:geometricPrecision; text-rendering:geometricPrecision; image-rendering:optimizeQuality; fill-rule:evenodd; clip-rule:evenodd"
viewBox="1186.73 3037.01 1304.90 1100.90"
 xmlns:xlink="http://www.w3.org/1999/xlink"
 xmlns:xodm="http://www.corel.com/coreldraw/odm/2003">
 <defs>
  <style type="text/css">
   <![CDATA[
    .fil2 {fill:#F8F8F8;fill-rule:nonzero}
    .fil0 {fill:#FF6C6C;fill-rule:nonzero}
    .fil1 {fill:white;fill-rule:nonzero}
   ]]>
  </style>
 </defs>
 <g id="Layer_x0020_1">
  <metadata id="CorelCorpID_0Corel-Layer"/>
  <g id="_1730065537744">
   <path class="fil0" d="M1502.09 3107.1c6.53,-0.18 13.39,-0.02 19.83,1.25 19.48,3.84 30.45,17.75 41.33,33.06 2.46,48.96 8.39,177.1 -4.19,219.85 -6.29,21.3 -17.88,29.26 -36.56,39.95 -1.43,0.05 -2.88,0.18 -4.33,0.15 -25.37,-0.61 -38.57,-14.26 -54.44,-32.06 -4.97,-46.01 -9.58,-183.26 0.68,-224.06 5.26,-20.89 20.61,-28.3 37.68,-38.13z"/>
   <path class="fil0" d="M2138.45 3107.65c5.19,0.37 10.53,0.77 15.61,2.01 20.58,5.05 31.85,20.71 43.1,37.31 3.73,45.4 8.12,179.31 -2.98,219.03 -5.19,18.65 -21.38,25.98 -37.09,34.45 -17.11,0.13 -34.97,-2.81 -47.56,-15.39 -8.2,-8.2 -11.43,-17.36 -13.28,-28.61 -7.23,-44.2 -1.4,-160.46 -1.49,-212.48 12.49,-17.76 24.07,-26.86 43.68,-36.33z"/>
   <path class="fil0" d="M2230.3 3251.25c51.11,0.5 99.45,2.72 138.86,40.63 21.77,20.95 35.48,48.62 41.59,78.02 10.98,52.7 4.2,112.2 4.55,166.06 1.19,103.63 1.79,207.26 1.8,310.91 0.03,52.89 2.75,112.36 -30.82,156.91 -24.25,32.17 -62.85,50.5 -102.17,55.72 -51.03,6.79 -106.08,3.04 -157.6,2.88l-297.44 -1.19 -286.2 2.43c-51.83,0.51 -106.49,4.39 -157.97,-1.09 -25.53,-2.73 -46.38,-10.72 -66.64,-26.85 -34.16,-27.2 -49.9,-58.1 -53.63,-101.7 -3.17,-37.04 -0.87,-75.7 -0.77,-112.93l0.42 -213.37c0.03,-65.3 -7.64,-170.61 0.66,-230.11 3.97,-28.52 14.5,-56.07 33.54,-77.99 27.65,-31.8 65.16,-43.78 105.83,-46.93 6.85,0.52 21.88,-0.69 26.11,5.52 13.33,19.52 -16.66,105.4 22.25,147.09 14.9,15.98 40.17,28.04 62.17,27.81 19.19,-0.19 37.57,-8.87 50.74,-22.62 38.72,-40.45 28.94,-104.07 28.43,-155.66l467.57 -0.22c-0.85,45.22 -11.03,113.43 21.56,149.23 1.94,2.11 4,4.13 6.16,6.03 2.14,1.91 4.39,3.71 6.72,5.4 2.33,1.67 4.74,3.23 7.22,4.68 2.49,1.43 5.05,2.75 7.67,3.93 2.62,1.19 5.29,2.23 8.02,3.15 2.73,0.9 5.5,1.67 8.3,2.3 2.81,0.63 5.64,1.13 8.49,1.46 2.86,0.35 5.72,0.54 8.6,0.59 2.78,0.08 5.58,0.02 8.36,-0.19 2.78,-0.21 5.55,-0.56 8.3,-1.05 2.75,-0.5 5.47,-1.13 8.15,-1.9 2.69,-0.77 5.32,-1.67 7.91,-2.7 2.61,-1.04 5.13,-2.2 7.6,-3.5 2.48,-1.3 4.87,-2.72 7.2,-4.24 2.33,-1.54 4.57,-3.2 6.74,-4.97 2.15,-1.77 4.21,-3.65 6.19,-5.63 36.87,-37.25 26.33,-107.44 25.56,-155.9z"/>
   <path class="fil1" d="M1339.89 3492.61c332.45,-2.76 664.91,-1.98 997.35,2.37 1.13,13.5 1.8,27.02 2.02,40.56l1.69 244.44c0.22,47.99 4.9,102.12 -3.97,149.21 -3.15,16.72 -9.77,27.31 -21.49,39.37 -15.35,10.3 -31.38,18.92 -49.95,21.54 -42.59,6 -88.87,3.26 -131.94,3.36l-234.43 -0.19 -319.55 -1.29c-66.2,-0.33 -133.39,1.98 -199.35,-4.02 -8.15,-5.18 -16,-10.44 -22.75,-17.43 -9.55,-9.85 -15.34,-21.33 -17.62,-34.89 -8.23,-49.13 -1.88,-106.61 -1.4,-156.75l1.4 -286.28z"/>
   <path class="fil0" d="M2076.86 3545.23l82 -0.35 -5.48 40.46c13.7,10.05 28.44,17.41 43.5,25.11 8.97,-9.1 19.13,-17.11 28.87,-25.35 18.97,15.26 35.5,32.25 50.43,51.44l-24.79 37.52 6.88 10.59c13.07,20.45 19.58,26.51 41.42,36.43l3.55 1.59c10.13,14.82 4.76,43.52 3.89,61 -12.22,-0.69 -25.85,-1.01 -37.15,4.34 -6.56,3.11 -10.7,7.89 -12.59,14.76 -5,18.36 7.15,35.39 15.43,50.95 -11.94,21.64 -28.73,36.72 -47.14,52.62 -11.13,-10.05 -23.09,-17.43 -35.83,-25.16 -9.3,5.02 -21.16,10.09 -29.08,17.09 -8.28,7.33 -7.44,20.89 -8.02,31.06 0.95,7.28 1.64,3.7 -2.98,10.53 -24.79,4.35 -50.01,0.33 -74.72,-2.93 -0.16,-11.77 1.17,-28.79 -5.03,-39.21 -8.17,-13.7 -31.13,-16.51 -45.37,-20.29l-21.56 18.52c-23.13,-20.08 -37.3,-42.52 -53.02,-68.36 8.46,-8 19.61,-17.73 21.67,-29.79 1.46,-8.55 0.85,-15.43 -4.79,-22.43 -10.51,-12.99 -24.76,-14.82 -40.35,-17.07l0.91 -59.65 37.24 -2.64c8.67,-8.94 15.24,-19.48 22.2,-29.76l-22.28 -38.93c14.81,-16.4 30.11,-31.99 45.96,-47.39l24.95 25.79c13.3,-7.52 27.56,-13.31 41.51,-19.48l-0.23 -41.03z"/>
   <path class="fil2" d="M2106.6 3665.54c14.21,-0.5 28.86,1.16 41.74,7.52 18.73,9.28 32.19,25.71 38.76,45.4 6.56,19.65 5.4,42.15 -3.92,60.7 -12.3,24.54 -32.11,35.18 -57.43,42.81 -15.93,0.76 -29.47,-1.19 -43.84,-8.54 -18.84,-9.61 -31.93,-26.5 -38.02,-46.61 -0.79,-2.7 -1.44,-5.43 -1.96,-8.2 -0.52,-2.78 -0.89,-5.56 -1.11,-8.38 -0.22,-2.8 -0.3,-5.61 -0.24,-8.43 0.06,-2.83 0.27,-5.63 0.63,-8.42 0.35,-2.8 0.84,-5.56 1.48,-8.31 0.64,-2.73 1.43,-5.43 2.35,-8.1 0.92,-2.67 1.96,-5.27 3.15,-7.83 1.19,-2.56 2.51,-5.03 3.95,-7.46 12.94,-21.35 30.76,-30.89 54.47,-36.17z"/>
  </g>
 </g>
</svg>
