<?xml version="1.0" encoding="UTF-8"?>
<!DOCTYPE svg PUBLIC "-//W3C//DTD SVG 1.1//EN" "http://www.w3.org/Graphics/SVG/1.1/DTD/svg11.dtd">
<!-- Creator: CorelDRAW -->
<svg xmlns="http://www.w3.org/2000/svg" xml:space="preserve" width="15.748in" height="8.85827in" version="1.1" style="shape-rendering:geometricPrecision; text-rendering:geometricPrecision; image-rendering:optimizeQuality; fill-rule:evenodd; clip-rule:evenodd"
viewBox="1233.13 6066.31 1211.97 1195.21"
 xmlns:xlink="http://www.w3.org/1999/xlink"
 xmlns:xodm="http://www.corel.com/coreldraw/odm/2003">
 <defs>
  <style type="text/css">
   <![CDATA[
    .fil0 {fill:#FF6C6C}
   ]]>
  </style>
 </defs>
 <g id="Layer_x0020_1">
  <metadata id="CorelCorpID_0Corel-Layer"/>
  <path class="fil0" d="M1505.17 6131.24l667.9 0c113.91,0 207.11,93.2 207.11,207.11l0 651.14c0,113.91 -93.2,207.11 -207.11,207.11l-667.9 0c-113.91,0 -207.11,-93.2 -207.11,-207.11l0 -651.14c0,-113.91 93.2,-207.11 207.11,-207.11zm395.18 358.35l368.7 0c7.72,0 14.02,6.31 14.02,14.02l0 0c0,7.72 -6.31,14.02 -14.02,14.02l-368.7 0c-7.72,0 -14.02,-6.31 -14.02,-14.02l0 -0c0,-7.72 6.31,-14.02 14.02,-14.02zm0 -100.42l368.7 0c7.72,0 14.02,6.31 14.02,14.02l0 0c0,7.72 -6.31,14.02 -14.02,14.02l-368.7 0c-7.72,0 -14.02,-6.31 -14.02,-14.02l0 -0c0,-7.72 6.31,-14.02 14.02,-14.02zm0 602.4l368.7 0c7.72,0 14.02,6.31 14.02,14.02l0 0c0,7.72 -6.31,14.02 -14.02,14.02l-368.7 0c-7.72,0 -14.02,-6.31 -14.02,-14.02l0 -0c0,-7.72 6.31,-14.02 14.02,-14.02zm0 -100.42l368.7 0c7.72,0 14.02,6.31 14.02,14.02l0 0c0,7.72 -6.31,14.02 -14.02,14.02l-368.7 0c-7.72,0 -14.02,-6.31 -14.02,-14.02l0 -0c0,-7.72 6.31,-14.02 14.02,-14.02zm0 -100.42l368.7 0c7.72,0 14.02,6.31 14.02,14.02l0 0c0,7.72 -6.31,14.02 -14.02,14.02l-368.7 0c-7.72,0 -14.02,-6.31 -14.02,-14.02l0 -0c0,-7.72 6.31,-14.02 14.02,-14.02zm-459.69 200.84l302.67 0c7.72,0 14.02,6.31 14.02,14.02l0 0c0,7.72 -6.31,14.02 -14.02,14.02l-302.67 0c-7.72,0 -14.02,-6.31 -14.02,-14.02l0 -0c0,-7.72 6.31,-14.02 14.02,-14.02zm0 -100.42l302.67 0c7.72,0 14.02,6.31 14.02,14.02l0 0c0,7.72 -6.31,14.02 -14.02,14.02l-302.67 0c-7.72,0 -14.02,-6.31 -14.02,-14.02l0 -0c0,-7.72 6.31,-14.02 14.02,-14.02zm0 -100.42l302.67 0c7.72,0 14.02,6.31 14.02,14.02l0 0c0,7.72 -6.31,14.02 -14.02,14.02l-302.67 0c-7.72,0 -14.02,-6.31 -14.02,-14.02l0 -0c0,-7.72 6.31,-14.02 14.02,-14.02zm-14.02 -487.11l330.71 0 0 325.59 -330.71 0 0 -325.59zm129.75 194.94l-54.27 -32.14c-22.06,-13.07 -29.61,5.09 -16.34,16.77l63.42 55.8c0.41,0.63 0.81,1.15 1.2,1.54l0 0c2.83,2.91 6.85,4.02 10.59,3.31 2.47,-0.31 4.85,-1.4 6.76,-3.31l0 -0c0.82,-0.82 1.96,-2.12 3.24,-3.72l130.54 -127.21c8.47,-8.26 -0.55,-29.73 -16.34,-16.77l-128.8 105.73z"/>
 </g>
</svg>
