<?xml version="1.0" encoding="UTF-8"?>
<!DOCTYPE svg PUBLIC "-//W3C//DTD SVG 1.1//EN" "http://www.w3.org/Graphics/SVG/1.1/DTD/svg11.dtd">
<!-- Creator: CorelDRAW -->
<svg xmlns="http://www.w3.org/2000/svg" xml:space="preserve" width="15.748in" height="8.85827in" version="1.1" style="shape-rendering:geometricPrecision; text-rendering:geometricPrecision; image-rendering:optimizeQuality; fill-rule:evenodd; clip-rule:evenodd"
viewBox="8485.70 5950.01 1014.22 1430.28"
 xmlns:xlink="http://www.w3.org/1999/xlink"
 xmlns:xodm="http://www.corel.com/coreldraw/odm/2003">
 <defs>
  <style type="text/css">
   <![CDATA[
    .fil1 {fill:#F8F8F8;fill-rule:nonzero}
    .fil0 {fill:#3EC5BE;fill-rule:nonzero}
   ]]>
  </style>
 </defs>
 <g id="Layer_x0020_1">
  <metadata id="CorelCorpID_0Corel-Layer"/>
  <g id="_1728605424192">
   <path class="fil0" d="M8967.57 6027.25c4.56,-0.31 9.06,-0.62 13.62,-0.6 17.88,0.06 35.85,4.61 48.51,17.98 20.73,21.9 18.55,57.15 18.85,84.96 30.36,-0.36 65.82,-4.04 95.29,3.11 33.6,8.12 49.17,31.26 65.81,59.11 56.03,0.24 125.14,-13.04 169.66,29.45 27.48,26.2 33.96,58.7 34.49,94.93 3.02,207.89 0.7,416.14 0.37,624.06 -0.12,71.35 9.13,203.48 -2.35,266.5 -3.92,21.48 -16.97,41.86 -32.37,56.94 -17.63,17.27 -40.76,27.51 -64.73,32.41 -37.09,7.57 -78.62,4.44 -116.39,4.43l-176.57 -0.2 -316.5 -0.18c-36.89,-0.38 -77.36,-5.06 -104.07,-33.4 -15.44,-16.38 -26.25,-37.51 -29.52,-59.87 -5.91,-40.45 -2.6,-84.88 -2.55,-125.8l0.33 -220.83c0.15,-185.87 -7.13,-372.96 -1.68,-558.61 0.93,-31.9 13,-61.65 37.18,-83.27 44.26,-39.56 111.26,-29.36 165.71,-26.52 4.56,-14.67 11.49,-27.51 22.41,-38.51 31.94,-32.13 85.76,-24.95 127.26,-24.77 -0.61,-20.48 -2.87,-42.56 4.17,-62.19 7.56,-21.05 23.53,-30.5 43.07,-39.12z"/>
   <path class="fil1" d="M9205.6 6231.78c42.84,-0.32 114.05,-10.13 145.96,23.09 13.61,14.17 14.26,38.33 15.55,57.08 3.32,48.48 0.84,98.74 0.85,147.37l-0.12 277.9 0.03 290.51c0.09,52.18 2.45,105.62 -0.39,157.64 -1.44,26.13 -12.24,38.46 -31.35,55.66 -8.42,4.47 -16.22,8.1 -25.62,10.08 -38.43,8.07 -83.2,3.57 -122.43,3.3l-190.53 -0.89 -198.19 1.23c-35.07,0.28 -71.24,2.5 -106.15,0.06 -17.41,-1.23 -35.97,-5.83 -50.57,-15.72 -15.06,-10.21 -25.36,-28.24 -27.71,-46.13 -4.79,-36.5 -1.53,-76.95 -1.52,-113.77l0.02 -227.8 -0.09 -356.9c0,-65.17 -2.72,-131.84 1.6,-196.84 0.96,-14.54 3.47,-26.3 12.7,-37.89 14.61,-18.36 36.77,-23.64 58.87,-26.67 28.43,0.93 56.87,1.64 85.31,2.18l0.34 51.1c143.1,-4.26 286.54,2.17 429.7,-1.28 2.14,-17.69 2.77,-35.54 3.72,-53.31z"/>
   <path class="fil0" d="M9184.7 7044.23l94.74 0.09 0.52 103.54c-31.66,-0.49 -63.32,-0.7 -94.99,-0.61l-0.27 -103.02zm7 -610.79c27.79,-1.09 55.82,-0.51 83.65,-0.63 0.7,141.2 3.26,283.1 -0.26,424.27 -27.92,-1.09 -55.95,-0.66 -83.91,-0.66 2.48,-53.19 1.05,-107.1 1.07,-160.38l-0.56 -262.6zm-309.45 93.39l90.23 0.3c2.98,108.26 0.63,217.26 0.78,325.58l-91.56 0.17c3.48,-108.39 0.81,-217.59 0.54,-326.05zm153.41 109.01l92.13 -0.7c-0.66,73.44 -0.67,146.87 -0.02,220.32l-92.45 -0.14 0.35 -219.48zm-307.59 59.38l93.27 0.7 0.16 157.36 -94.32 -0.41 0.89 -157.66zm303.38 197.87l99.62 0.15 -0.16 112.33 -99.23 0.16 -0.23 -112.64zm-153.4 -0.54l97.97 -0.04 0.02 111.69 -98.21 0.07 0.22 -111.72zm306.35 1.83l95.39 0.14c0.97,36.76 -0.97,74.04 -1.7,110.84l-93.46 0.62 -0.24 -111.6zm-425.12 -0.34l62.87 -0.67c0.86,36.46 0.43,73.07 0.63,109.55l-36.31 0.17c-19.8,0.03 -39.17,-0.52 -58.91,-2.26 -2.69,-31.53 -6.02,-72.24 0.02,-103.22 9.74,-4.65 21.13,-3.53 31.7,-3.56zm118.23 147.65l97.89 -0.42 0.18 105.47 -97.75 0.14 -0.32 -105.19zm-151.26 0.61l95.94 -0.09c0.02,33.1 3.46,71.76 -2.28,104.24 -30.89,0.9 -61.8,1.65 -92.69,2.23 -2.94,-35.16 -1.23,-71.12 -0.97,-106.39zm305.46 1.28l98.13 0.32 -0.72 102.38 -97.19 0.18 -0.22 -102.88z"/>
  </g>
 </g>
</svg>
